<!DOCTYPE svg PUBLIC "-//W3C//DTD SVG 1.1//EN" "http://www.w3.org/Graphics/SVG/1.1/DTD/svg11.dtd">
<!-- Uploaded to: SVG Repo, www.svgrepo.com, Transformed by: SVG Repo Mixer Tools -->
<svg width="200px" height="200px" viewBox="0 0 24 24" fill="none" xmlns="http://www.w3.org/2000/svg"
    transform="rotate(-45)">
    <g id="SVGRepo_bgCarrier" stroke-width="0">
        <rect width="100%" height="100%" fill="#17212B" />
    </g>
    <g id="SVGRepo_tracerCarrier" stroke-linecap="round" stroke-linejoin="round" />
    <g id="SVGRepo_iconCarrier">
        <path
            d="M2 15C3.83333 12.3333 8.8 7 14 7C14.9226 7 15.7539 7.10492 16.5 7.28685M2 9C3.83333 11.6667 8.8 17 14 17C14.9226 17 15.7539 16.8951 16.5 16.7132M16.5 16.7132C19.9595 15.8697 22 12 22 12C22 12 19.9595 8.13032 16.5 7.28685M16.5 16.7132C15.5 15.1667 14.1 11.1163 16.5 7.28685M12 10.5C11.5 11 10.8 12.3 12 13.5"
            stroke="#FFFFFF" stroke-linecap="round" stroke-width="1.008" />
        <path d="M18 11H18.001" stroke="#FFFFFF" stroke-linecap="round" stroke-width="1.008" />
    </g>
</svg>